<?xml version="1.0" encoding="UTF-8"?>
<svg width="53px" height="66px" viewBox="0 0 53 66" version="1.1" xmlns="http://www.w3.org/2000/svg" xmlns:xlink="http://www.w3.org/1999/xlink">
    <!-- Generator: Sketch 49.1 (51147) - http://www.bohemiancoding.com/sketch -->
    <title>Fill 5</title>
    <desc>Created with Sketch.</desc>
    <defs></defs>
    <g id="Page-1" stroke="none" stroke-width="1" fill="none" fill-rule="evenodd">
        <g id="Design" transform="translate(-453.000000, -455.000000)" fill="#42BE9A">
            <path d="M501.011726,488.188488 C500.890399,487.95813 500.819898,487.671207 500.638726,487.506431 C499.674666,486.625168 498.732739,485.708655 497.691619,484.924126 C492.767203,481.212164 488.251858,477.042765 483.85538,472.734004 C481.515729,470.4419 479.083443,468.257188 476.389648,466.379073 C474.771403,465.251876 473.305637,463.955805 472.062852,462.415439 C471.570164,461.804703 471.037307,461.227578 470.497892,460.658651 C470.007664,460.139731 469.297735,460.130713 468.784553,460.7021 C465.888272,463.922194 462.666538,466.791422 459.329216,469.540143 C459.12919,469.704919 458.973432,469.92134 458.79554,470.111529 C458.415162,470.520599 458.409423,471.114939 458.853744,471.509253 C460.222776,472.724986 461.610662,473.921045 462.999369,475.114644 C466.471955,478.099461 469.958477,481.069522 473.417947,484.071555 C474.105742,484.667535 474.729594,485.346312 475.319016,486.041485 C475.78793,486.595656 475.728086,487.276073 475.417389,487.886809 C475.182932,488.347525 474.89273,488.808241 474.530388,489.172223 C471.766911,491.957014 469.197722,494.937733 466.11945,497.40363 C463.667489,499.367002 461.249959,501.373002 458.834069,503.379822 C457.993795,504.078274 457.970841,504.676714 458.806197,505.271054 C460.955659,506.799123 462.746877,508.698552 464.577445,510.573388 C466.127648,512.16294 467.801637,513.635264 469.455953,515.121525 C470.20933,515.797023 470.746286,515.762592 471.5095,515.073158 C474.227889,512.616278 476.837248,510.028234 479.663847,507.704159 C486.746743,501.880446 493.305799,495.475508 500.196865,489.440291 C500.483788,489.189439 500.703489,488.856608 500.932208,488.545912 C500.99861,488.455736 500.987133,488.308995 501.011726,488.188488 L501.011726,488.188488 Z M468.606661,520.955076 C465.82023,518.191599 463.074789,515.385494 460.229334,512.68432 C459.003764,511.519413 457.588004,510.549614 456.22963,509.529808 C455.287703,508.822339 454.301508,508.176352 453.598957,507.196716 C452.851318,506.155596 452.80623,504.997247 453.448937,503.879068 C454.116238,502.721539 455.063903,501.809125 456.073052,500.981967 C458.401226,499.07352 460.803999,497.255249 463.132173,495.345983 C464.952904,493.853164 466.708871,492.283287 468.486153,490.738822 C468.782094,490.482231 469.052621,490.192849 469.308392,489.895269 C470.716774,488.258989 470.98894,488.267187 469.023929,486.498102 C467.954116,485.535681 466.858891,484.598673 465.754648,483.673142 C462.744418,481.148221 459.717792,478.643795 456.7133,476.113135 C455.914014,475.438457 455.117189,474.746563 454.417097,473.973511 C453.089874,472.507745 453.074298,470.830476 454.347416,469.378646 C454.949954,468.692491 455.620533,468.058801 456.313247,467.462822 C457.503567,466.438097 458.722579,465.445344 459.953068,464.467347 C462.728022,462.26296 465.325084,459.901175 467.53193,457.090151 C469.693689,454.336512 471.233235,454.355367 473.636008,456.841758 C473.817999,457.030307 474.016386,457.211479 474.159848,457.427081 C476.086329,460.334019 478.823573,462.330182 481.656731,464.254205 C482.947064,465.130549 484.157059,466.174128 485.244087,467.297226 C490.537403,472.765156 496.295535,477.710066 502.145481,482.559882 C503.247265,483.472296 504.263792,484.519155 505.169648,485.625857 C506.42555,487.158845 506.237821,488.815619 504.735165,490.140383 C497.172699,496.80847 489.606953,503.471638 482.016615,510.106933 C479.451524,512.34903 476.927423,514.620639 474.584493,517.102932 C473.251532,518.514592 471.656241,519.679499 470.180638,520.955076 L468.606661,520.955076 Z" id="Fill-5"></path>
        </g>
    </g>
</svg>
