
<svg width="155px" height="17px" viewBox="0 0 155 17" version="1.1" xmlns="http://www.w3.org/2000/svg" xmlns:xlink="http://www.w3.org/1999/xlink">
    <!-- Generator: Sketch 49.1 (51147) - http://www.bohemiancoding.com/sketch -->
    <desc>lk-logo</desc>
    <defs></defs>
    <g id="Page-1" stroke="none" stroke-width="1" fill="none" fill-rule="evenodd">
        <g id="Design" transform="translate(-72.000000, -93.000000)" fill="#FFFFFF">
            <g id="Logo" transform="translate(58.000000, 84.000000)">
                <path d="M14,9.18994413 L15.2037391,9.18994413 L15.2037391,24.7178771 L24.7156383,24.7178771 L24.7156383,25.8100559 L14,25.8100559 L14,9.18994413 Z M39.1311152,21.1326816 L29.5484078,21.1326816 L27.4477651,25.8100559 L26.1496151,25.8100559 L33.7496933,9.18994413 L34.9534324,9.18994413 L42.5535106,25.8100559 L41.2553606,25.8100559 L39.1311152,21.1326816 Z M38.6826633,20.1117318 L34.3397615,10.5195531 L30.0204624,20.1117318 L38.6826633,20.1117318 Z M58.1019184,25.8100559 L54.160263,20.2541899 C53.5780594,20.3333337 53.0430696,20.372905 52.5552775,20.372905 L47.834732,20.372905 L47.834732,25.8100559 L46.6309929,25.8100559 L46.6309929,9.18994413 L52.5552775,9.18994413 C54.6323279,9.18994413 56.2608998,9.68458537 57.4410421,10.6738827 C58.6211844,11.66318 59.2112466,13.0363041 59.2112466,14.7932961 C59.2112466,16.1070829 58.876878,17.2111222 58.2081307,18.1054469 C57.5393834,18.9997717 56.5834825,19.6289553 55.3403993,19.9930168 L59.4708766,25.8100559 L58.1019184,25.8100559 Z M52.5552775,19.3044693 C54.3176233,19.3044693 55.6629653,18.9127134 56.5913439,18.1291899 C57.5197225,17.3456665 57.9839048,16.233713 57.9839048,14.7932961 C57.9839048,13.3528792 57.5197225,12.2409257 56.5913439,11.4574022 C55.6629653,10.6738788 54.3176233,10.2821229 52.5552775,10.2821229 L47.834732,10.2821229 L47.834732,19.3044693 L52.5552775,19.3044693 Z M69.0477944,25.9287709 C67.8361817,25.9287709 66.6835933,25.7190431 65.5899948,25.299581 C64.4963963,24.8801189 63.6427729,24.3379922 63.0290989,23.6731844 L63.5719616,22.7709497 C64.1541652,23.3882712 64.9369811,23.8908267 65.920433,24.2786313 C66.9038849,24.6664358 67.9384608,24.8603352 69.0241917,24.8603352 C70.5977147,24.8603352 71.7857068,24.5595933 72.5882035,23.9581006 C73.3907003,23.3566078 73.7919426,22.5730961 73.7919426,21.6075419 C73.7919426,20.8635903 73.5795202,20.2700208 73.154669,19.8268156 C72.7298178,19.3836104 72.2026955,19.0432973 71.5732862,18.8058659 C70.943877,18.5684346 70.0941873,18.3230925 69.0241917,18.0698324 C67.8125789,17.769086 66.8409431,17.4762584 66.1092548,17.1913408 C65.3775666,16.9064232 64.7560344,16.4671817 64.2446394,15.8736034 C63.7332444,15.280025 63.4775507,14.4846419 63.4775507,13.4874302 C63.4775507,12.6801636 63.6899732,11.9401803 64.1148244,11.2674581 C64.5396756,10.5947359 65.1887441,10.0605234 66.0620494,9.66480447 C66.9353547,9.26908554 68.025003,9.07122905 69.3310271,9.07122905 C70.2436705,9.07122905 71.1405652,9.20577147 72.0217381,9.47486034 C72.902911,9.7439492 73.6660582,10.1080052 74.3112026,10.5670391 L73.8627508,11.5405028 C73.2018711,11.0814688 72.4741276,10.7332414 71.6794985,10.4958101 C70.8848694,10.2583787 70.1020534,10.1396648 69.3310271,10.1396648 C67.8047098,10.1396648 66.6481877,10.4483209 65.8614262,11.0656425 C65.0746647,11.682964 64.6812898,12.4823042 64.6812898,13.4636872 C64.6812898,14.2076387 64.8937123,14.8012082 65.3185635,15.2444134 C65.7434147,15.6876186 66.270537,16.0279318 66.8999462,16.2653631 C67.5293554,16.5027945 68.3869126,16.7560508 69.4726435,17.0251397 C70.6842562,17.325886 71.6519584,17.6187137 72.375779,17.9036313 C73.0995996,18.1885489 73.7171981,18.6198761 74.2285931,19.1976257 C74.7399881,19.7753753 74.9956817,20.5549299 74.9956817,21.5363128 C74.9956817,22.3435795 74.7793256,23.0796056 74.3466067,23.7444134 C73.9138879,24.4092212 73.2490844,24.9394766 72.3521763,25.3351955 C71.4552681,25.7309145 70.3538185,25.9287709 69.0477944,25.9287709 Z M85.139065,18.4259777 L82.1179158,21.5125698 L82.1179158,25.8100559 L79.7576431,25.8100559 L79.7576431,9.18994413 L82.1179158,9.18994413 L82.1179158,18.4734637 L91.0869523,9.18994413 L93.7776632,9.18994413 L86.7204477,16.6689944 L94.226115,25.8100559 L91.4645959,25.8100559 L85.139065,18.4259777 Z M112.016782,9.18994413 L112.016782,25.8100559 L110.081358,25.8100559 L100.168213,13.4162011 L100.168213,25.8100559 L97.80794,25.8100559 L97.80794,9.18994413 L99.7433637,9.18994413 L109.656509,21.5837989 L109.656509,9.18994413 L112.016782,9.18994413 Z M125.511752,26 C123.843818,26 122.341126,25.6319869 121.003632,24.8959497 C119.666137,24.1599125 118.615826,23.1429301 117.852667,21.8449721 C117.089509,20.547014 116.707935,19.0987045 116.707935,17.5 C116.707935,15.9012955 117.089509,14.452986 117.852667,13.1550279 C118.615826,11.8570699 119.666137,10.8400875 121.003632,10.1040503 C122.341126,9.36801308 123.843818,9 125.511752,9 C127.163952,9 128.658776,9.36801308 129.996271,10.1040503 C131.333765,10.8400875 132.380142,11.8531127 133.135433,13.1431564 C133.890724,14.4332001 134.268364,15.8854668 134.268364,17.5 C134.268364,19.1145332 133.890724,20.5667999 133.135433,21.8568436 C132.380142,23.1468873 131.333765,24.1599125 129.996271,24.8959497 C128.658776,25.6319869 127.163952,26 125.511752,26 Z M125.511752,23.8868715 C126.723365,23.8868715 127.813014,23.6098724 128.78073,23.0558659 C129.748447,22.5018594 130.511594,21.7381334 131.070195,20.7646648 C131.628795,19.7911962 131.908092,18.7029855 131.908092,17.5 C131.908092,16.2970145 131.628795,15.2088037 131.070195,14.2353352 C130.511594,13.2618666 129.748447,12.4981406 128.78073,11.9441341 C127.813014,11.3901276 126.723365,11.1131285 125.511752,11.1131285 C124.30014,11.1131285 123.202624,11.3901276 122.219172,11.9441341 C121.23572,12.4981406 120.464705,13.2618666 119.906105,14.2353352 C119.347504,15.2088037 119.068208,16.2970145 119.068208,17.5 C119.068208,18.7029855 119.347504,19.7911962 119.906105,20.7646648 C120.464705,21.7381334 121.23572,22.5018594 122.219172,23.0558659 C123.202624,23.6098724 124.30014,23.8868715 125.511752,23.8868715 Z M144.340939,18.4259777 L141.31979,21.5125698 L141.31979,25.8100559 L138.959518,25.8100559 L138.959518,9.18994413 L141.31979,9.18994413 L141.31979,18.4734637 L150.288827,9.18994413 L152.979538,9.18994413 L145.922322,16.6689944 L153.427989,25.8100559 L150.66647,25.8100559 L144.340939,18.4259777 Z M169,23.7444134 L169,25.8100559 L157.009814,25.8100559 L157.009814,9.18994413 L168.669562,9.18994413 L168.669562,11.2555866 L159.370087,11.2555866 L159.370087,16.3603352 L167.654645,16.3603352 L167.654645,18.3784916 L159.370087,18.3784916 L159.370087,23.7444134 L169,23.7444134 Z" id="LARS-KNOKE"></path>
            </g>
        </g>
    </g>
</svg>
